<svg aria-hidden="true" style="position: absolute; width: 0; height: 0; overflow: hidden;" version="1.1" xmlns="http://www.w3.org/2000/svg" xmlns:xlink="http://www.w3.org/1999/xlink">
<defs>
<symbol id="icon-arrow-left">
<path fill="#fefefe" style="fill: var(--color1, #fefefe)" d="M34.667 5.333v16c0 2.946-2.388 5.333-5.333 5.333h-21.333c-2.946 0-5.333-2.388-5.333-5.333v-16c0-2.946 2.388-5.333 5.333-5.333h21.333c2.946 0 5.333 2.388 5.333 5.333z"></path>
<path fill="#2c2c2c" style="fill: var(--color2, #2c2c2c)" d="M25.7 12.73l-9.289-8.85c-0.149-0.142-0.352-0.23-0.575-0.23s-0.426 0.088-0.575 0.23l-0.010 0.010c-0.147 0.14-0.238 0.337-0.238 0.556s0.091 0.416 0.238 0.555l0 0 8.747 8.333-8.747 8.331c-0.147 0.14-0.238 0.337-0.238 0.556s0.091 0.416 0.238 0.555l0.010 0.010c0.149 0.142 0.352 0.23 0.575 0.23s0.426-0.088 0.575-0.23l-0 0 9.289-8.85c0.159-0.152 0.258-0.366 0.258-0.603s-0.099-0.451-0.258-0.603l-0-0z"></path>
</symbol>
<symbol id="icon-arrow-right" viewBox="0 0 37 32">
<path fill="#fefefe" style="fill: var(--color1, #fefefe)" d="M2.667 21.333v-16c0-2.946 2.388-5.333 5.333-5.333h21.333c2.946 0 5.333 2.388 5.333 5.333v16c0 2.946-2.388 5.333-5.333 5.333h-21.333c-2.946 0-5.333-2.388-5.333-5.333z"></path>
<path fill="#2c2c2c" style="fill: var(--color2, #2c2c2c)" d="M11.633 13.937l9.289 8.85c0.149 0.142 0.352 0.23 0.575 0.23s0.426-0.088 0.575-0.23l0.010-0.010c0.147-0.14 0.238-0.337 0.238-0.556s-0.091-0.416-0.238-0.555l-0-0-8.747-8.333 8.747-8.33c0.147-0.14 0.239-0.337 0.239-0.556s-0.092-0.416-0.238-0.556l-0.010-0.010c-0.149-0.142-0.352-0.23-0.575-0.23s-0.426 0.088-0.575 0.23l0-0-9.289 8.85c-0.159 0.152-0.258 0.366-0.258 0.603s0.099 0.451 0.258 0.603l0 0z"></path>
</symbol>
</defs>
</svg>
